<svg xmlns="http://www.w3.org/2000/svg" width="1200" height="900" viewBox="0 0 1200 900">
  <defs>
    <linearGradient id="bg" x1="0" y1="1" x2="1" y2="0">
      <stop offset="0" stop-color="#0f172a"/>
      <stop offset="1" stop-color="#09090b"/>
    </linearGradient>
    <linearGradient id="sheen" x1="0" y1="0" x2="1" y2="0">
      <stop offset="0" stop-color="#ffffff" stop-opacity="0"/>
      <stop offset="0.5" stop-color="#ffffff" stop-opacity="0.08"/>
      <stop offset="1" stop-color="#ffffff" stop-opacity="0"/>
    </linearGradient>
  </defs>
  <rect width="1200" height="900" fill="url(#bg)"/>
  <rect x="-200" y="0" width="1600" height="900" fill="url(#sheen)" transform="skewX(-18)"/>
  <g transform="translate(295,120)">
    <path d="M80,232 C140,120 238,65 345,65 C452,65 550,120 610,232 L570,282 C530,210 448,170 345,170 C242,170 160,210 120,282 Z" fill="#111827" opacity="0.95"/>
    <path d="M140,282 L268,175 L345,295 L422,175 L550,282 L550,720 C550,760 518,792 478,792 L212,792 C172,792 140,760 140,720 Z" fill="#0b1220"/>
    <path d="M268,175 L345,295 L422,175 L500,260 L416,322 L345,250 L274,322 L190,260 Z" fill="#111827" opacity="0.95"/>
    <rect x="305" y="365" width="80" height="260" rx="18" fill="#111827" opacity="0.9"/>
    <circle cx="345" cy="440" r="7" fill="#cbd5e1" opacity="0.9"/>
    <circle cx="345" cy="500" r="7" fill="#cbd5e1" opacity="0.9"/>
    <circle cx="345" cy="560" r="7" fill="#cbd5e1" opacity="0.9"/>
  </g>
  <text x="60" y="840" fill="#e5e7eb" opacity="0.7" font-family="ui-sans-serif, system-ui" font-size="28">Suit Placeholder</text>
</svg>

