<svg xmlns="http://www.w3.org/2000/svg" width="1200" height="900" viewBox="0 0 1200 900">
  <defs>
    <linearGradient id="bg" x1="0" y1="0" x2="1" y2="1">
      <stop offset="0" stop-color="#0f172a"/>
      <stop offset="1" stop-color="#09090b"/>
    </linearGradient>
    <radialGradient id="glow" cx="50%" cy="35%" r="60%">
      <stop offset="0" stop-color="#f59e0b" stop-opacity="0.25"/>
      <stop offset="1" stop-color="#000" stop-opacity="0"/>
    </radialGradient>
  </defs>
  <rect width="1200" height="900" fill="url(#bg)"/>
  <rect width="1200" height="900" fill="url(#glow)"/>
  <g transform="translate(300,120)">
    <path d="M90,230 C150,120 245,70 350,70 C455,70 550,120 610,230 L570,280 C530,210 450,170 350,170 C250,170 170,210 130,280 Z" fill="#0b1220" opacity="0.95"/>
    <path d="M150,280 L275,175 L350,295 L425,175 L550,280 L550,720 C550,760 518,792 478,792 L222,792 C182,792 150,760 150,720 Z" fill="#09090b"/>
    <path d="M275,175 L350,295 L425,175 L500,260 L418,322 L350,250 L282,322 L200,260 Z" fill="#0b1220" opacity="0.95"/>
    <rect x="308" y="365" width="84" height="260" rx="18" fill="#0b1220" opacity="0.9"/>
    <circle cx="350" cy="440" r="7" fill="#f8fafc" opacity="0.85"/>
    <circle cx="350" cy="500" r="7" fill="#f8fafc" opacity="0.85"/>
    <circle cx="350" cy="560" r="7" fill="#f8fafc" opacity="0.85"/>
  </g>
  <text x="60" y="840" fill="#e5e7eb" opacity="0.7" font-family="ui-sans-serif, system-ui" font-size="28">Suit Placeholder</text>
</svg>

