<svg xmlns="http://www.w3.org/2000/svg" width="1200" height="900" viewBox="0 0 1200 900">
  <defs>
    <linearGradient id="bg" x1="0" y1="1" x2="1" y2="0">
      <stop offset="0" stop-color="#0b1220"/>
      <stop offset="1" stop-color="#0f172a"/>
    </linearGradient>
    <linearGradient id="stripe" x1="0" y1="0" x2="1" y2="0">
      <stop offset="0" stop-color="#334155" stop-opacity="0.0"/>
      <stop offset="0.4" stop-color="#334155" stop-opacity="0.35"/>
      <stop offset="1" stop-color="#334155" stop-opacity="0.0"/>
    </linearGradient>
  </defs>
  <rect width="1200" height="900" fill="url(#bg)"/>
  <rect y="0" width="1200" height="900" fill="url(#stripe)"/>
  <g transform="translate(290,115)">
    <path d="M70,235 C130,120 230,60 340,60 C450,60 550,120 610,235 L570,285 C525,205 445,168 340,168 C235,168 155,205 110,285 Z" fill="#111827" opacity="0.95"/>
    <path d="M135,285 L260,175 L340,295 L420,175 L545,285 L545,715 C545,755 513,787 473,787 L207,787 C167,787 135,755 135,715 Z" fill="#0b1220"/>
    <path d="M260,175 L340,295 L420,175 L495,260 L412,322 L340,250 L268,322 L185,260 Z" fill="#111827" opacity="0.95"/>
    <rect x="300" y="365" width="80" height="250" rx="18" fill="#111827" opacity="0.88"/>
    <circle cx="340" cy="435" r="7" fill="#cbd5e1" opacity="0.9"/>
    <circle cx="340" cy="495" r="7" fill="#cbd5e1" opacity="0.9"/>
    <circle cx="340" cy="555" r="7" fill="#cbd5e1" opacity="0.9"/>
  </g>
  <text x="60" y="840" fill="#e5e7eb" opacity="0.7" font-family="ui-sans-serif, system-ui" font-size="28">Suit Placeholder</text>
</svg>

