<svg xmlns="http://www.w3.org/2000/svg" width="1200" height="900" viewBox="0 0 1200 900">
  <defs>
    <linearGradient id="bg" x1="0" y1="1" x2="1" y2="0">
      <stop offset="0" stop-color="#0b1020"/>
      <stop offset="1" stop-color="#0f172a"/>
    </linearGradient>
    <linearGradient id="accent" x1="0" y1="0" x2="1" y2="1">
      <stop offset="0" stop-color="#22c55e"/>
      <stop offset="1" stop-color="#38bdf8"/>
    </linearGradient>
  </defs>
  <rect width="1200" height="900" fill="url(#bg)"/>
  <g opacity="0.12">
    <path d="M0,620 C240,520 420,520 600,620 C780,720 960,720 1200,620 L1200,900 L0,900 Z" fill="url(#accent)"/>
  </g>
  <g transform="translate(310,130)">
    <path d="M80,220 C140,110 240,60 340,60 C440,60 540,110 600,220 L560,270 C520,200 440,160 340,160 C240,160 160,200 120,270 Z" fill="#111827" opacity="0.9"/>
    <path d="M140,270 L260,170 L340,290 L420,170 L540,270 L540,710 C540,750 508,782 468,782 L212,782 C172,782 140,750 140,710 Z" fill="#0b1220"/>
    <path d="M260,170 L340,290 L420,170 L495,255 L410,318 L340,245 L270,318 L185,255 Z" fill="#111827" opacity="0.95"/>
    <rect x="300" y="360" width="80" height="250" rx="18" fill="#111827" opacity="0.9"/>
    <circle cx="340" cy="430" r="7" fill="#cbd5e1" opacity="0.9"/>
    <circle cx="340" cy="490" r="7" fill="#cbd5e1" opacity="0.9"/>
    <circle cx="340" cy="550" r="7" fill="#cbd5e1" opacity="0.9"/>
  </g>
  <text x="60" y="840" fill="#e5e7eb" opacity="0.7" font-family="ui-sans-serif, system-ui" font-size="28">Suit Placeholder</text>
</svg>

